<?xml version="1.0" encoding="utf-8"?>
<!-- Generator: Adobe Illustrator 24.2.3, SVG Export Plug-In . SVG Version: 6.00 Build 0)  -->
<svg version="1.1" id="Layer_1" xmlns="http://www.w3.org/2000/svg" xmlns:xlink="http://www.w3.org/1999/xlink" x="0px" y="0px"
	 viewBox="0 0 448.58 304.88" style="enable-background:new 0 0 448.58 304.88;" xml:space="preserve">
<style type="text/css">
	.st0{fill:#FFFFFF;}
</style>
<g>
	<path class="st0" d="M299.87,135.14c3.45,0,6.19,2.76,6.19,6.27c0,3.52-2.74,6.32-6.22,6.32c-3.48,0-6.26-2.79-6.26-6.32
		c0-3.52,2.78-6.27,6.26-6.27H299.87z M299.79,136.41c-2.63,0-4.67,2.25-4.67,5.01c0,2.79,2.04,5.01,4.74,5.01
		c2.63,0.04,4.63-2.22,4.63-4.98c0-2.79-2-5.05-4.67-5.05H299.79z M298.87,144.67h-1.41v-6.27c0.56-0.08,1.34-0.19,2.33-0.19
		c1.15,0,1.67,0.19,2.08,0.5c0.37,0.27,0.63,0.73,0.63,1.34c0,0.76-0.55,1.26-1.26,1.49v0.08c0.59,0.19,0.89,0.69,1.08,1.53
		c0.18,0.96,0.33,1.3,0.44,1.53h-1.48c-0.18-0.23-0.3-0.77-0.48-1.53c-0.11-0.65-0.48-0.96-1.26-0.96h-0.67V144.67z M298.91,141.15
		h0.67c0.78,0,1.41-0.27,1.41-0.92c0-0.57-0.41-0.96-1.3-0.96c-0.37,0-0.63,0.04-0.78,0.08V141.15z"/>
	<polygon class="st0" points="211.98,0 209.65,0 171.04,77.8 106.15,36.54 102.3,36.41 135.39,142.77 157.8,139.62 138.38,80.36 
		181.67,106.45 189.58,89.59 189.57,89.58 210.56,46.25 228.29,84.49 247.21,73.04 	"/>
	<polygon class="st0" points="314.55,36.54 210.35,102.21 194.77,92.77 187.06,109.7 209.03,122.94 210.35,122.94 211.67,122.94 
		282.32,80.36 262.9,139.62 285.31,142.77 318.4,36.41 	"/>
</g>
<g>
	<polygon class="st0" points="55.01,214.28 3.74,165.62 0,165.62 0,250.27 16.44,250.27 16.44,199.18 53.69,234.49 56.17,234.49 
		91.54,199.33 91.54,250.27 107.98,250.27 107.98,165.62 104.22,165.62 	"/>
	<rect x="128.23" y="166.89" class="st0" width="16.44" height="83.38"/>
	<path class="st0" d="M208.27,164.47l-55.57,85.8h17.59l9.94-15.4h59.34l10.18,15.4h18.23l-56.73-85.8H208.27z M229.85,220.23
		h-40.18l19.88-30.67L229.85,220.23z"/>
	<polygon class="st0" points="329.77,214.28 278.5,165.62 274.75,165.62 274.75,250.27 291.2,250.27 291.2,199.18 328.44,234.49 
		330.92,234.49 366.3,199.33 366.3,250.27 382.74,250.27 382.74,165.62 378.97,165.62 	"/>
	<rect x="402.99" y="166.89" class="st0" width="16.44" height="83.38"/>
</g>
<path class="st0" d="M23.26,304.88c-13.14,0-22.47-5.72-22.47-15.84c0-10.18,9.95-16.29,22.18-16.29c9.28,0,13.82,1.81,15.61,2.51
	v3.71l-0.19,0.15c-2.27-1.61-6.43-4.01-15.27-4.01c-10.39,0-17.73,4.61-17.73,13.93c0,8.97,6.33,13.48,17.88,13.48
	c7.97,0,11.98-2.15,15.99-5.41l0.24,0.1v3.96C37.37,302.42,32.01,304.88,23.26,304.88z"/>
<path class="st0" d="M64.96,304.88c-11.31,0-21.65-5.26-21.65-15.94c0-11.13,10.87-16.19,21.65-16.19
	c10.73,0,21.64,4.96,21.64,16.09C86.6,299.51,76.26,304.88,64.96,304.88z M64.86,302.52c10.87,0,17.15-4.96,17.15-13.58
	c0-8.67-6.62-13.83-17.15-13.83c-10.53,0-16.96,5.06-16.96,13.73C47.9,297.46,54.04,302.52,64.86,302.52z"/>
<path class="st0" d="M93.37,273.15h3.77c8.79,8.57,19.61,18.59,28.46,26.67c0.1-7.07,0.1-20.05,0-26.52l0.19-0.15h2.42l0.19,0.2
	c-0.19,8.97-0.19,21.45,0,30.87l-0.24,0.2h-3.58c-7.59-7.62-20.05-19.2-28.6-26.97c-0.09,6.26-0.14,19,0,26.82l-0.19,0.15h-2.47
	l-0.14-0.15c0.14-7.72,0.14-23.71,0-30.98L93.37,273.15z"/>
<path class="st0" d="M136.9,304.33c0.19-9.63,0.19-23.46,0-30.73l0.19-0.2c3.72-0.15,6.91-0.65,15.41-0.65
	c12.32,0,23.19,5.26,23.19,16.39c0,9.93-10.53,15.74-23.19,15.74c-7.54,0-11.98-0.45-15.41-0.4L136.9,304.33z M141,301.87
	c2.61,0.25,4.16,0.7,10.82,0.7c13.14,0,19.28-5.01,19.28-13.33c0-9.12-6.47-14.13-19.52-14.13c-5.12,0-7.59,0.45-10.58,0.9
	C140.86,281.12,140.9,293.4,141,301.87z"/>
<path class="st0" d="M201.97,304.88c-11.31,0-21.65-5.26-21.65-15.94c0-11.13,10.87-16.19,21.65-16.19
	c10.73,0,21.65,4.96,21.65,16.09C223.62,299.51,213.28,304.88,201.97,304.88z M201.88,302.52c10.87,0,17.15-4.96,17.15-13.58
	c0-8.67-6.62-13.83-17.15-13.83c-10.53,0-16.96,5.06-16.96,13.73C184.92,297.46,191.05,302.52,201.88,302.52z"/>
<path class="st0" d="M247.92,304.42h-3.82l-0.14-0.1c0.19-9.63,0.19-23.81,0-31.03l0.19-0.15h3.77l0.19,0.2
	c-0.15,4.86-0.19,11.28-0.19,17.79c9.9-6.72,17.1-12.43,24.26-17.99h5.41l0.1,0.2c-5.27,3.26-11.69,7.72-18.36,12.53
	c5.55,5.31,13.19,12.38,20.34,18.34l-0.15,0.2h-5.75c-6.57-6.52-11.55-11.03-17.68-16.19l-8.17,5.91c0.05,3.56,0.09,7.02,0.19,10.13
	L247.92,304.42z"/>
<path class="st0" d="M284.88,304.27c0.19-9.62,0.19-23.71,0-30.93l0.14-0.2h3.82l0.19,0.15c-0.19,10.83-0.15,20.85-0.05,30.98
	l-0.19,0.15h-3.77L284.88,304.27z"/>
<path class="st0" d="M297.97,273.15h3.77c8.79,8.57,19.62,18.59,28.46,26.67c0.1-7.07,0.1-20.05,0-26.52l0.19-0.15h2.42l0.19,0.2
	c-0.19,8.97-0.19,21.45,0,30.87l-0.24,0.2h-3.57c-7.58-7.62-20.05-19.2-28.6-26.97c-0.1,6.26-0.14,19,0,26.82l-0.19,0.15h-2.47
	l-0.14-0.15c0.14-7.72,0.14-23.71,0-30.98L297.97,273.15z"/>
<path class="st0" d="M361.74,304.88c-13,0-22.18-5.62-22.18-15.89c0-9.92,10.1-16.24,21.98-16.24c9.91,0,14.54,1.76,16.33,2.56v4.16
	l-0.2,0.1c-2.17-1.9-6.14-4.46-15.99-4.46c-10.53,0-17.54,4.66-17.54,13.88c0,9.33,6.04,13.53,17.59,13.53
	c6.09,0,9.76-1.15,13.19-2.5c0.1-3.56,0.1-5.56-0.05-10.88l0.19-0.2h3.77l0.19,0.15c-0.19,5.11-0.19,7.97,0,12.58
	C374.26,303.62,369.38,304.88,361.74,304.88z"/>
<path class="st0" d="M409.72,290.49c-4.69-0.8-11.89-0.1-18.21-1.6c-4.3-1-6.57-3.31-6.57-7.12c0-5.41,5.03-9.02,16.09-9.02
	c8.94,0,13.29,1.91,15.02,2.91v3.66l-0.24,0.1c-2.03-1.75-6.38-4.31-15.03-4.31c-10.1,0-12.56,3.06-12.56,5.91
	c0,2.56,1.64,4.01,4.83,4.66c4.88,1.01,11.74,0.45,17.49,1.31c5.03,0.75,8.02,2.86,8.02,7.17c0,6.07-5.36,10.73-17.88,10.73
	c-9.04,0-14.35-2.21-16.47-3.66v-4.06l0.19-0.1c3.53,3.21,8.26,5.46,16.52,5.46c10.44,0,14.06-3.11,14.06-7.07
	C414.98,292.94,413.29,291.09,409.72,290.49z"/>
<path class="st0" d="M436.46,166.44v1.62h-3.03v8.2h-1.88v-8.2h-2.99v-1.62H436.46z M446.7,176.27l-0.35-5.78
	c-0.04-0.76-0.04-1.66-0.07-2.75h-0.1c-0.25,0.87-0.52,2.02-0.8,2.93l-1.71,5.45h-1.95l-1.67-5.6c-0.17-0.72-0.49-1.92-0.7-2.78
	h-0.1c0,0.9-0.03,1.88-0.07,2.75l-0.35,5.78h-1.81l0.7-9.83h2.85l1.6,4.8c0.24,0.76,0.42,1.48,0.63,2.49h0.07
	c0.21-0.87,0.45-1.73,0.63-2.42l1.64-4.88h2.75l0.7,9.83H446.7z"/>
</svg>
